Results
version=1
nRows=4
nColumns=213
inDegrees=yes
endheader
time	platform_rx	platform_ry	platform_rz	platform_ty	pelvis_tilt	pelvis_list	pelvis_rotation	pelvis_tx	pelvis_ty	pelvis_tz	hip_flexion_r	hip_adduction_r	hip_rotation_r	knee_angle_r	knee_angle_r_beta	ankle_angle_r	subtalar_angle_r	mtp_angle_r	hip_flexion_l	hip_adduction_l	hip_rotation_l	knee_angle_l	knee_angle_l_beta	ankle_angle_l	subtalar_angle_l	mtp_angle_l	lumbar_extension	lumbar_bending	lumbar_rotation	arm_flex_r	arm_add_r	arm_rot_r	elbow_flex_r	pro_sup_r	wrist_flex_r	wrist_dev_r	arm_flex_l	arm_add_l	arm_rot_l	elbow_flex_l	pro_sup_l	wrist_flex_l	wrist_dev_l	platform_rx_u	platform_ry_u	platform_rz_u	platform_ty_u	pelvis_tilt_u	pelvis_list_u	pelvis_rotation_u	pelvis_tx_u	pelvis_ty_u	pelvis_tz_u	hip_flexion_r_u	hip_adduction_r_u	hip_rotation_r_u	knee_angle_r_u	knee_angle_r_beta_u	ankle_angle_r_u	subtalar_angle_r_u	mtp_angle_r_u	hip_flexion_l_u	hip_adduction_l_u	hip_rotation_l_u	knee_angle_l_u	knee_angle_l_beta_u	ankle_angle_l_u	subtalar_angle_l_u	mtp_angle_l_u	lumbar_extension_u	lumbar_bending_u	lumbar_rotation_u	arm_flex_r_u	arm_add_r_u	arm_rot_r_u	elbow_flex_r_u	pro_sup_r_u	wrist_flex_r_u	wrist_dev_r_u	arm_flex_l_u	arm_add_l_u	arm_rot_l_u	elbow_flex_l_u	pro_sup_l_u	wrist_flex_l_u	wrist_dev_l_u	addbrev_r.activation	addlong_r.activation	addlong_r.fiber_length	addmagDist_r.activation	addmagIsch_r.activation	addmagIsch_r.fiber_length	addmagMid_r.activation	addmagProx_r.activation	bflh_r.activation	bflh_r.fiber_length	bfsh_r.activation	edl_r.activation	edl_r.fiber_length	ehl_r.activation	ehl_r.fiber_length	fdl_r.activation	fdl_r.fiber_length	fhl_r.activation	fhl_r.fiber_length	gaslat_r.activation	gaslat_r.fiber_length	gasmed_r.activation	gasmed_r.fiber_length	glmax1_r.activation	glmax2_r.activation	glmax3_r.activation	glmed1_r.activation	glmed2_r.activation	glmed3_r.activation	glmin1_r.activation	glmin2_r.activation	glmin3_r.activation	glmin3_r.fiber_length	grac_r.activation	iliacus_r.activation	perbrev_r.activation	perbrev_r.fiber_length	perlong_r.activation	perlong_r.fiber_length	piri_r.activation	piri_r.fiber_length	psoas_r.activation	recfem_r.activation	recfem_r.fiber_length	sart_r.activation	semimem_r.activation	semimem_r.fiber_length	semiten_r.activation	semiten_r.fiber_length	soleus_r.activation	soleus_r.fiber_length	tfl_r.activation	tfl_r.fiber_length	tibant_r.activation	tibant_r.fiber_length	tibpost_r.activation	tibpost_r.fiber_length	vasint_r.activation	vasint_r.fiber_length	vaslat_r.activation	vaslat_r.fiber_length	vasmed_r.activation	vasmed_r.fiber_length	addbrev_l.activation	addlong_l.activation	addlong_l.fiber_length	addmagDist_l.activation	addmagIsch_l.activation	addmagIsch_l.fiber_length	addmagMid_l.activation	addmagProx_l.activation	bflh_l.activation	bflh_l.fiber_length	bfsh_l.activation	edl_l.activation	edl_l.fiber_length	ehl_l.activation	ehl_l.fiber_length	fdl_l.activation	fdl_l.fiber_length	fhl_l.activation	fhl_l.fiber_length	gaslat_l.activation	gaslat_l.fiber_length	gasmed_l.activation	gasmed_l.fiber_length	glmax1_l.activation	glmax2_l.activation	glmax3_l.activation	glmed1_l.activation	glmed2_l.activation	glmed3_l.activation	glmin1_l.activation	glmin2_l.activation	glmin3_l.activation	glmin3_l.fiber_length	grac_l.activation	iliacus_l.activation	perbrev_l.activation	perbrev_l.fiber_length	perlong_l.activation	perlong_l.fiber_length	piri_l.activation	piri_l.fiber_length	psoas_l.activation	recfem_l.activation	recfem_l.fiber_length	sart_l.activation	semimem_l.activation	semimem_l.fiber_length	semiten_l.activation	semiten_l.fiber_length	soleus_l.activation	soleus_l.fiber_length	tfl_l.activation	tfl_l.fiber_length	tibant_l.activation	tibant_l.fiber_length	tibpost_l.activation	tibpost_l.fiber_length	vasint_l.activation	vasint_l.fiber_length	vaslat_l.activation	vaslat_l.fiber_length	vasmed_l.activation	vasmed_l.fiber_length
      0.00845728	     20.00000000	      0.00000000	      0.00000000	      0.25000000	      0.10695853	     -0.00613327	     -0.00686664	      0.12102041	      0.94492641	      0.00002643	      5.39741137	     -5.70091714	    -10.00677264	      8.55325530	      8.55325530	      1.00494526	     -0.86410454	     -0.00000000	      5.38802034	     -5.73993290	    -10.11015269	      8.54974840	      8.54974840	      1.17679977	     -0.00000000	      0.00000000	     -0.12235116	      0.00548863	      0.00679792	     14.01700480	     -0.00157953	     89.93254085	      0.08164696	      0.07396010	     -0.00000000	      0.00000000	     14.01713171	     -0.00351935	     89.93326805	      0.08235353	      0.07391852	      0.00000000	     -0.00000000	      0.00000000	      0.00000000	      0.00000000	     -0.00000000	     23.06556560	     -1.15683718	     -1.30412747	      0.00430522	     -0.02390456	      0.00525633	    -37.74978431	      6.08128919	     -2.58367343	    -53.55340956	    -53.55340956	   -611.92687377	   -177.18905419	     -0.00000000	    -39.60938420	     -1.61212548	    -23.39479881	    -54.32181638	    -54.32181638	   -578.49118900	     -0.00000000	      0.00000000	    -26.39505476	      1.00351681	      1.29026025	      3.70140825	     -0.30702248	     -0.29534666	      1.40851874	     -0.16332820	     -0.00000000	      0.00000000	      3.73111392	     -0.76129185	     -0.24864076	      1.57378789	     -0.17304265	      0.00000000	     -0.00000000	      0.01000000	      0.01000000	      0.11491923	      0.01000000	      0.01000000	      0.13361910	      0.01000000	      0.01000000	      0.01000000	      0.09155187	      0.01000000	      0.01000000	      0.06810723	      0.01000000	      0.07730570	      0.01000000	      0.04579678	      0.01000000	      0.05204462	      0.01000000	      0.07050235	      0.01000000	      0.06085065	      0.01000000	      0.01000000	      0.01000000	      0.01000000	      0.01000000	      0.01000000	      0.01000000	      0.01000000	      0.01000000	      0.03352965	      0.01000000	      0.01000000	      0.01000000	      0.04839587	      0.01000000	      0.05415889	      0.01000000	      0.01772303	      0.01000000	      0.01000000	      0.06645681	      0.01000000	      0.01000000	      0.06655452	      0.01000000	      0.21261883	      0.01000000	      0.04897403	      0.01000000	      0.09201596	      0.01000000	      0.06534438	      0.01000000	      0.03962874	      0.01000000	      0.08656261	      0.01000000	      0.08479992	      0.01000000	      0.08625113	      0.01000000	      0.01000000	      0.11496783	      0.01000000	      0.01000000	      0.13364371	      0.01000000	      0.01000000	      0.01000000	      0.09155351	      0.01000000	      0.01000000	      0.06820268	      0.01000000	      0.07720489	      0.01000000	      0.04570798	      0.01000000	      0.05195012	      0.01000000	      0.07053436	      0.01000000	      0.06090964	      0.01000000	      0.01000000	      0.01000000	      0.01000000	      0.01000000	      0.01000000	      0.01000000	      0.01000000	      0.01000000	      0.03349260	      0.01000000	      0.01000000	      0.01000000	      0.04871870	      0.01000000	      0.05440539	      0.01000000	      0.01768531	      0.01000000	      0.01000000	      0.06645094	      0.01000000	      0.01000000	      0.06655945	      0.01000000	      0.21263240	      0.01000000	      0.04901582	      0.01000000	      0.09200174	      0.01000000	      0.06510870	      0.01000000	      0.03951405	      0.01000000	      0.08656054	      0.01000000	      0.08479798	      0.01000000	      0.08624923
      0.00983323	     20.00000000	      0.00000000	      0.00000000	      0.25000000	      0.14050605	     -0.00775312	     -0.00869726	      0.12102667	      0.94488851	      0.00003390	      5.34254003	     -5.69222220	    -10.01093711	      8.47538493	      8.47538493	      0.12158559	     -1.11808200	     -0.00000000	      5.33050782	     -5.74214706	    -10.14400666	      8.47074985	      8.47074985	      0.34066990	     -0.00000000	      0.00000000	     -0.16074088	      0.00688069	      0.00860882	     14.02239808	     -0.00201314	     89.93211120	      0.08367357	      0.07373969	     -0.00000000	      0.00000000	     14.02256895	     -0.00462508	     89.93290753	      0.08462467	      0.07368374	      0.00000000	     -0.00000000	      0.00000000	      0.00000000	      0.00000000	     -0.00000000	     25.64949132	     -1.19148480	     -1.35031930	      0.00478744	     -0.03133688	      0.00558376	    -41.92832510	      6.53553922	     -3.48726753	    -59.51673607	    -59.51673607	   -670.22401587	   -191.33953828	     -0.00000000	    -43.90028259	     -1.59393462	    -25.75088051	    -60.38886722	    -60.38886722	   -635.17348244	      0.00000000	      0.00000000	    -29.35099466	      1.01385113	      1.33558870	      4.13061015	     -0.32179839	     -0.32850986	      1.53252415	     -0.15535554	     -0.00000000	      0.00000000	      4.16476528	     -0.84391482	     -0.27479057	      1.72247876	     -0.16651396	      0.00000000	     -0.00000000	      0.01000000	      0.01000000	      0.11495135	      0.01000000	      0.01000000	      0.13357511	      0.01000000	      0.01000000	      0.01000000	      0.09154256	      0.01000000	      0.01000000	      0.06856683	      0.01000000	      0.07783592	      0.01000000	      0.04577692	      0.01000000	      0.05194673	      0.01000000	      0.07004363	      0.01000000	      0.06040221	      0.01000000	      0.01000000	      0.01000000	      0.01000000	      0.01000000	      0.01000000	      0.01000000	      0.01000000	      0.01000000	      0.03351887	      0.01000000	      0.01000000	      0.01000000	      0.04821576	      0.01000000	      0.05397147	      0.01000000	      0.01771498	      0.01000000	      0.01000000	      0.06643956	      0.01000000	      0.01000000	      0.06655484	      0.01000000	      0.21262057	      0.01000000	      0.04849444	      0.01000000	      0.09202484	      0.01000000	      0.06600989	      0.01000000	      0.03959519	      0.01000000	      0.08650819	      0.01000000	      0.08474879	      0.01000000	      0.08620241	      0.01000000	      0.01000000	      0.11501513	      0.01000000	      0.01000000	      0.13360765	      0.01000000	      0.01000000	      0.01000000	      0.09154482	      0.01000000	      0.01000000	      0.06869527	      0.01000000	      0.07770385	      0.01000000	      0.04564494	      0.01000000	      0.05181077	      0.01000000	      0.07008543	      0.01000000	      0.06048097	      0.01000000	      0.01000000	      0.01000000	      0.01000000	      0.01000000	      0.01000000	      0.01000000	      0.01000000	      0.01000000	      0.03346974	      0.01000000	      0.01000000	      0.01000000	      0.04864499	      0.01000000	      0.05431149	      0.01000000	      0.01766232	      0.01000000	      0.01000000	      0.06643124	      0.01000000	      0.01000000	      0.06656176	      0.01000000	      0.21263843	      0.01000000	      0.04854834	      0.01000000	      0.09200495	      0.01000000	      0.06570218	      0.01000000	      0.03942755	      0.01000000	      0.08650532	      0.01000000	      0.08474610	      0.01000000	      0.08619980
      0.01160799	     20.00000000	      0.00000000	     -0.00000000	      0.25000000	      0.18868710	     -0.00986893	     -0.01110675	      0.12103569	      0.94482343	      0.00004405	      5.26384438	     -5.68023907	    -10.01826968	      8.36369119	      8.36369119	     -1.12286910	     -1.46979751	     -0.00000000	      5.24823059	     -5.74487821	    -10.19201004	      8.35738374	      8.35738374	     -0.84077063	     -0.00000000	      0.00000000	     -0.21587076	      0.00865455	      0.01099149	     14.03017406	     -0.00259220	     89.93149443	      0.08650551	      0.07348395	     -0.00000000	      0.00000000	     14.03041038	     -0.00620435	     89.93239372	      0.08782051	      0.07340663	      0.00000000	     -0.00000000	      0.00000000	      0.00000000	     -0.00000000	     -0.00000000	     28.57118858	     -1.18345503	     -1.35515971	      0.00536696	     -0.04224917	      0.00581782	    -46.62797997	      6.93420374	     -4.80304064	    -66.15268247	    -66.15268247	   -729.18197904	   -203.97392424	     -0.00000000	    -48.68049347	     -1.46503683	    -28.24497594	    -67.16690246	    -67.16690246	   -693.48069606	      0.00000000	      0.00000000	    -32.68876257	      0.97612620	      1.33972275	      4.62065138	     -0.32860767	     -0.36546429	      1.65132056	     -0.13007714	     -0.00000000	     -0.00000000	      4.66016861	     -0.93236080	     -0.30328298	      1.87098879	     -0.14297162	      0.00000000	     -0.00000000	      0.01000000	      0.01000000	      0.11499857	      0.01000000	      0.01000000	      0.13351145	      0.01000000	      0.01000000	      0.01000000	      0.09152869	      0.01000000	      0.01000000	      0.06922173	      0.01000000	      0.07859021	      0.01000000	      0.04574430	      0.01000000	      0.05179306	      0.01000000	      0.06937709	      0.01000000	      0.05974767	      0.01000000	      0.01000000	      0.01000000	      0.01000000	      0.01000000	      0.01000000	      0.01000000	      0.01000000	      0.01000000	      0.03350266	      0.01000000	      0.01000000	      0.01000000	      0.04796138	      0.01000000	      0.05370070	      0.01000000	      0.01770223	      0.01000000	      0.01000000	      0.06641267	      0.01000000	      0.01000000	      0.06655545	      0.01000000	      0.21262338	      0.01000000	      0.04781186	      0.01000000	      0.09203818	      0.01000000	      0.06695255	      0.01000000	      0.03954133	      0.01000000	      0.08642784	      0.01000000	      0.08467335	      0.01000000	      0.08613087	      0.01000000	      0.01000000	      0.11508303	      0.01000000	      0.01000000	      0.13355496	      0.01000000	      0.01000000	      0.01000000	      0.09153186	      0.01000000	      0.01000000	      0.06939804	      0.01000000	      0.07841465	      0.01000000	      0.04554382	      0.01000000	      0.05159839	      0.01000000	      0.06943182	      0.01000000	      0.05985362	      0.01000000	      0.01000000	      0.01000000	      0.01000000	      0.01000000	      0.01000000	      0.01000000	      0.01000000	      0.01000000	      0.03343672	      0.01000000	      0.01000000	      0.01000000	      0.04853690	      0.01000000	      0.05416985	      0.01000000	      0.01762768	      0.01000000	      0.01000000	      0.06640064	      0.01000000	      0.01000000	      0.06656536	      0.01000000	      0.21264719	      0.01000000	      0.04788053	      0.01000000	      0.09200995	      0.01000000	      0.06654585	      0.01000000	      0.03929583	      0.01000000	      0.08642376	      0.01000000	      0.08466953	      0.01000000	      0.08612719
      0.01323929	     20.00000000	      0.00000000	     -0.00000000	      0.25000000	      0.23722300	     -0.01176139	     -0.01328666	      0.12104486	      0.94474547	      0.00005360	      5.18469986	     -5.66874761	    -10.02718454	      8.25152000	      8.25152000	     -2.34597106	     -1.80831261	     -0.00000000	      5.16571907	     -5.74710616	    -10.23960106	      8.24344743	      8.24344743	     -2.00604016	      0.00000000	      0.00000000	     -0.27139438	      0.01018820	      0.01314589	     14.03803820	     -0.00312611	     89.93087437	      0.08926191	      0.07330052	     -0.00000000	      0.00000000	     14.03834267	     -0.00777915	     89.93188092	      0.09095564	      0.07320098	      0.00000000	     -0.00000000	      0.00000000	      0.00000000	     -0.00000000	     -0.00000000	     30.87739659	     -1.13041697	     -1.30998517	      0.00586649	     -0.05351275	      0.00585795	    -50.30805665	      7.12942290	     -6.14606374	    -71.21025284	    -71.21025284	   -768.05960255	   -210.24517255	      0.00000000	    -52.37404173	     -1.25316737	    -30.02460801	    -72.35891758	    -72.35891758	   -733.02851506	      0.00000000	      0.00000000	    -35.31788293	      0.89833106	      1.29418297	      5.01196281	     -0.32457367	     -0.39387973	      1.72239762	     -0.09270329	     -0.00000000	      0.00000000	      5.05590140	     -0.99549947	     -0.32470974	      1.96653221	     -0.10702661	      0.00000000	     -0.00000000	      0.01000000	      0.01000000	      0.11504722	      0.01000000	      0.01000000	      0.13344714	      0.01000000	      0.01000000	      0.01000000	      0.09151433	      0.01000000	      0.01000000	      0.06986996	      0.01000000	      0.07933540	      0.01000000	      0.04570700	      0.01000000	      0.05162863	      0.01000000	      0.06870047	      0.01000000	      0.05908191	      0.01000000	      0.01000000	      0.01000000	      0.01000000	      0.01000000	      0.01000000	      0.01000000	      0.01000000	      0.01000000	      0.03348555	      0.01000000	      0.01000000	      0.01000000	      0.04771231	      0.01000000	      0.05343114	      0.01000000	      0.01768815	      0.01000000	      0.01000000	      0.06638364	      0.01000000	      0.01000000	      0.06655624	      0.01000000	      0.21262645	      0.01000000	      0.04714880	      0.01000000	      0.09205202	      0.01000000	      0.06787772	      0.01000000	      0.03948189	      0.01000000	      0.08634524	      0.01000000	      0.08459586	      0.01000000	      0.08605766	      0.01000000	      0.01000000	      0.11515126	      0.01000000	      0.01000000	      0.13350113	      0.01000000	      0.01000000	      0.01000000	      0.09151841	      0.01000000	      0.01000000	      0.07009327	      0.01000000	      0.07911824	      0.01000000	      0.04543310	      0.01000000	      0.05137729	      0.01000000	      0.06876685	      0.01000000	      0.05921366	      0.01000000	      0.01000000	      0.01000000	      0.01000000	      0.01000000	      0.01000000	      0.01000000	      0.01000000	      0.01000000	      0.03340348	      0.01000000	      0.01000000	      0.01000000	      0.04842685	      0.01000000	      0.05402354	      0.01000000	      0.01759168	      0.01000000	      0.01000000	      0.06636775	      0.01000000	      0.01000000	      0.06656921	      0.01000000	      0.21265602	      0.01000000	      0.04722732	      0.01000000	      0.09201539	      0.01000000	      0.06737666	      0.01000000	      0.03915885	      0.01000000	      0.08633987	      0.01000000	      0.08459084	      0.01000000	      0.08605284
